<svg width="420" height="52" viewBox="0 0 420 52" fill="currentColor" xmlns="http://www.w3.org/2000/svg">
  <path d="M23.4731 26.0712H5.86826V19.589H0V6.48219H5.86826V0H23.602V6.48219H29.4703V13.1068H23.4731V6.62466H5.99724V19.4466H23.602V25.9288H29.4703V45.5178H23.602V52H5.86826V45.5178H0V38.8932H5.99724V45.3753H23.4731V26.0712Z" fill="#006838"/>
  <path d="M41.0778 52V45.3753H46.9461V6.62466H41.0778V0H58.8116V6.62466H52.9433V45.3753H64.5509V32.411H70.5481V52H41.0778Z" fill="#006838"/>
  <path d="M88.0239 0H105.758V6.48219H111.626V52H105.629V39.0356H88.1529V52H82.1556V6.48219H88.0239V0ZM105.629 6.62466H88.1529V32.411H105.629V6.62466Z" fill="#006838"/>
  <path d="M146.707 26.0712H129.102V19.589H123.233V6.48219H129.102V0H146.835V6.48219H152.704V13.1068H146.707V6.62466H129.231V19.4466H146.835V25.9288H152.704V45.5178H146.835V52H129.102V45.5178H123.233V38.8932H129.231V45.3753H146.707V26.0712Z" fill="#006838"/>
  <path d="M187.785 52V32.5534H170.309V52H164.311V0H170.309V25.9288H187.785V0H193.782V52H187.785Z" fill="#006838"/>
  <path d="M246.596 52H222.994V0H246.596V6.48219H252.464V45.5178H246.596V52ZM246.467 6.62466H228.991V45.3753H246.467V6.62466Z" fill="#006838"/>
  <path d="M269.94 0H287.674V6.48219H293.542V52H287.545V39.0356H270.069V52H264.072V6.48219H269.94V0ZM287.545 6.62466H270.069V32.411H287.545V6.62466Z" fill="#006838"/>
  <path d="M328.623 52V45.5178H322.755V32.5534H316.886V19.589H311.147V52H305.15V0H311.147V6.48219H317.015V19.4466H322.884V32.411H328.623V0H334.62V52H328.623Z" fill="#006838"/>
  <path d="M352.096 52V45.5178H346.228V6.48219H352.096V0H369.83V6.48219H375.698V19.589H369.701V6.62466H352.225V45.3753H369.701V32.411H375.698V45.5178H369.83V52H352.096Z" fill="#006838"/>
  <path d="M387.305 52V45.3753H393.174V6.62466H387.305V0H416.776V13.1068H410.779V6.62466H399.171V19.4466H405.039V26.0712H399.171V45.3753H410.779V38.8932H416.776V52H387.305Z" fill="#006838"/>
  <path d="M26.6974 26.0712H9.09258V19.589H3.22432V6.48219H9.09258V0H26.8263V6.48219H32.6946V13.1068H26.6974V6.62466H9.22156V19.4466H26.8263V25.9288H32.6946V45.5178H26.8263V52H9.09258V45.5178H3.22432V38.8932H9.22156V45.3753H26.6974V26.0712Z" fill="#044423"/>
  <path d="M44.3022 52V45.3753H50.1704V6.62466H44.3022V0H62.0359V6.62466H56.1677V45.3753H67.7752V32.411H73.7724V52H44.3022Z" fill="#044423"/>
  <path d="M91.2482 0H108.982V6.48219H114.85V52H108.853V39.0356H91.3772V52H85.3799V6.48219H91.2482V0ZM108.853 6.62466H91.3772V32.411H108.853V6.62466Z" fill="#044423"/>
  <path d="M149.931 26.0712H132.326V19.589H126.458V6.48219H132.326V0H150.06V6.48219H155.928V13.1068H149.931V6.62466H132.455V19.4466H150.06V25.9288H155.928V45.5178H150.06V52H132.326V45.5178H126.458V38.8932H132.455V45.3753H149.931V26.0712Z" fill="#044423"/>
  <path d="M191.009 52V32.5534H173.533V52H167.536V0H173.533V25.9288H191.009V0H197.006V52H191.009Z" fill="#044423"/>
  <path d="M249.82 52H226.218V0H249.82V6.48219H255.689V45.5178H249.82V52ZM249.691 6.62466H232.216V45.3753H249.691V6.62466Z" fill="#044423"/>
  <path d="M273.164 0H290.898V6.48219H296.766V52H290.769V39.0356H273.293V52H267.296V6.48219H273.164V0ZM290.769 6.62466H273.293V32.411H290.769V6.62466Z" fill="#044423"/>
  <path d="M331.847 52V45.5178H325.979V32.5534H320.111V19.589H314.371V52H308.374V0H314.371V6.48219H320.24V19.4466H326.108V32.411H331.847V0H337.844V52H331.847Z" fill="#044423"/>
  <path d="M355.32 52V45.5178H349.452V6.48219H355.32V0H373.054V6.48219H378.922V19.589H372.925V6.62466H355.449V45.3753H372.925V32.411H378.922V45.5178H373.054V52H355.32Z" fill="#044423"/>
  <path d="M390.53 52V45.3753H396.398V6.62466H390.53V0H420V13.1068H414.003V6.62466H402.395V19.4466H408.263V26.0712H402.395V45.3753H414.003V38.8932H420V52H390.53Z" fill="#044423"/>
</svg>
